<?xml version="1.0" encoding="utf-8"?>
<!-- Generator: Adobe Illustrator 22.1.0, SVG Export Plug-In . SVG Version: 6.00 Build 0)  -->
<svg version="1.1" id="Layer_1" xmlns="http://www.w3.org/2000/svg" xmlns:xlink="http://www.w3.org/1999/xlink" x="0px" y="0px"
	 viewBox="0 0 360 134" style="enable-background:new 0 0 360 134;" xml:space="preserve">
<style type="text/css">
	.st0{opacity:0.5;fill:#007F1D;enable-background:new    ;}
	.st1{enable-background:new    ;}
	.st2{fill:#FFFFFF;}
</style>
<title>contact</title>
<rect class="st0" width="360" height="134"/>
<g class="st1">
	<path class="st2" d="M89.7,54.8c-2.6,0-4.5,1-6,2.9c-1.4,1.9-2.1,4.6-2.1,8.1c0,7.2,2.7,10.7,8.1,10.7c2.3,0,5-0.6,8.2-1.7v5.7
		c-2.6,1.1-5.6,1.6-8.8,1.6c-4.7,0-8.2-1.4-10.7-4.3c-2.5-2.8-3.7-6.9-3.7-12.2c0-3.3,0.6-6.3,1.8-8.8s3-4.4,5.2-5.8
		c2.3-1.3,4.9-2,8-2c3.1,0,6.3,0.8,9.4,2.3l-2.2,5.5c-1.2-0.6-2.4-1.1-3.6-1.5S90.9,54.8,89.7,54.8z"/>
	<path class="st2" d="M133.9,65.6c0,5.3-1.3,9.4-4,12.3c-2.6,2.9-6.4,4.3-11.3,4.3s-8.7-1.4-11.3-4.3c-2.6-2.9-4-7-4-12.3
		c0-5.3,1.3-9.4,4-12.2c2.6-2.8,6.4-4.2,11.4-4.2s8.7,1.4,11.3,4.3C132.6,56.2,133.9,60.3,133.9,65.6z M110.4,65.6
		c0,3.6,0.7,6.3,2,8.1c1.4,1.8,3.4,2.7,6.1,2.7c5.4,0,8.2-3.6,8.2-10.8c0-7.2-2.7-10.9-8.1-10.9c-2.7,0-4.8,0.9-6.1,2.7
		C111.1,59.3,110.4,62,110.4,65.6z"/>
</g>
<g class="st1">
	<path class="st2" d="M168.5,81.7h-8.7l-14-24.3h-0.2c0.3,4.3,0.4,7.4,0.4,9.2v15.1H140V49.6h8.6l14,24.1h0.2
		c-0.2-4.2-0.3-7.1-0.3-8.9V49.6h6.1V81.7z"/>
</g>
<g class="st1">
	<path class="st2" d="M189.4,81.7h-6.8V55.2h-8.7v-5.7h24.3v5.7h-8.7V81.7z"/>
	<path class="st2" d="M222.7,81.7l-2.3-7.6h-11.7l-2.3,7.6H199l11.3-32.3h8.3l11.4,32.3H222.7z M218.8,68.3
		c-2.2-6.9-3.4-10.8-3.6-11.8c-0.3-0.9-0.5-1.6-0.6-2.2c-0.5,1.9-1.9,6.5-4.2,13.9H218.8z"/>
</g>
<g class="st1">
	<path class="st2" d="M245.9,54.8c-2.6,0-4.5,1-6,2.9c-1.4,1.9-2.1,4.6-2.1,8.1c0,7.2,2.7,10.7,8.1,10.7c2.3,0,5-0.6,8.2-1.7v5.7
		c-2.6,1.1-5.6,1.6-8.8,1.6c-4.7,0-8.2-1.4-10.7-4.3c-2.5-2.8-3.7-6.9-3.7-12.2c0-3.3,0.6-6.3,1.8-8.8s3-4.4,5.2-5.8
		c2.3-1.3,4.9-2,8-2c3.1,0,6.3,0.8,9.4,2.3l-2.2,5.5c-1.2-0.6-2.4-1.1-3.6-1.5S247.1,54.8,245.9,54.8z"/>
</g>
<g class="st1">
	<path class="st2" d="M275,81.7h-6.8V55.2h-8.7v-5.7h24.3v5.7H275V81.7z"/>
</g>
</svg>
