<?xml version="1.0" encoding="utf-8"?>
<!-- Generator: Adobe Illustrator 22.1.0, SVG Export Plug-In . SVG Version: 6.00 Build 0)  -->
<svg version="1.1" id="Layer_1" xmlns="http://www.w3.org/2000/svg" xmlns:xlink="http://www.w3.org/1999/xlink" x="0px" y="0px"
	 viewBox="0 0 360 135.3" style="enable-background:new 0 0 360 135.3;" xml:space="preserve">
<style type="text/css">
	.st0{opacity:0.5;fill:#007F1D;enable-background:new    ;}
	.st1{enable-background:new    ;}
	.st2{fill:#FFFFFF;}
</style>
<rect y="0.3" class="st0" width="360" height="134"/>
<g class="st1">
	<path class="st2" d="M50.7,65.3c0,5.3-1.5,9.4-4.4,12.2c-2.9,2.8-7.2,4.2-12.7,4.2h-9V49.5h9.9c5.1,0,9.1,1.4,11.9,4.1
		S50.7,60.3,50.7,65.3z M45.2,65.5c0-7.7-3.6-11.5-10.8-11.5h-4.5v23.3h3.7C41.3,77.2,45.2,73.3,45.2,65.5z"/>
</g>
<g class="st1">
	<path class="st2" d="M86.4,65.6c0,5.2-1.3,9.3-3.9,12.2c-2.6,2.9-6.3,4.4-11.1,4.4c-4.8,0-8.6-1.4-11.2-4.3
		c-2.6-2.9-3.9-7-3.9-12.3s1.3-9.4,3.9-12.2c2.6-2.8,6.3-4.3,11.2-4.3c4.8,0,8.5,1.4,11.1,4.3S86.4,60.3,86.4,65.6z M61.9,65.6
		c0,4,0.8,7,2.4,9c1.6,2,4,3.1,7.1,3.1c3.1,0,5.5-1,7.1-3c1.6-2,2.4-5,2.4-9c0-3.9-0.8-6.9-2.4-9c-1.6-2-3.9-3.1-7-3.1
		c-3.1,0-5.5,1-7.1,3.1C62.7,58.6,61.9,61.6,61.9,65.6z"/>
</g>
<g class="st1">
	<path class="st2" d="M119.5,81.7h-6.4L97.3,56.1h-0.2l0.1,1.4c0.2,2.7,0.3,5.2,0.3,7.5v16.7h-4.8V49.5h6.4L114.9,75h0.1
		c0-0.3-0.1-1.6-0.2-3.7c-0.1-2.1-0.1-3.8-0.1-5V49.5h4.8V81.7z"/>
</g>
<g class="st1">
	<path class="st2" d="M149.3,81.7l-3.2-8.9h-12.3l-3.1,8.9h-5.5l12-32.3h5.7l12,32.3H149.3z M144.7,68.2l-3-8.7
		c-0.2-0.6-0.5-1.5-0.9-2.8c-0.4-1.3-0.7-2.2-0.8-2.8c-0.4,1.8-1,3.8-1.7,5.9l-2.9,8.4H144.7z"/>
</g>
<g class="st1">
	<path class="st2" d="M168.4,81.7h-5.3V54h-9.4v-4.5h24.1V54h-9.4V81.7z"/>
</g>
<g class="st1">
	<path class="st2" d="M201.5,81.7h-18.2V49.5h18.2V54h-12.9v8.7h12.1v4.4h-12.1v10.1h12.9V81.7z"/>
</g>
<g class="st1">
	<path class="st2" d="M253.7,81.7h-6.4l-15.8-25.6h-0.2l0.1,1.4c0.2,2.7,0.3,5.2,0.3,7.5v16.7H227V49.5h6.4L249.1,75h0.1
		c0-0.3-0.1-1.6-0.2-3.7c-0.1-2.1-0.1-3.8-0.1-5V49.5h4.8V81.7z"/>
	<path class="st2" d="M290.7,65.6c0,5.2-1.3,9.3-3.9,12.2c-2.6,2.9-6.3,4.4-11.1,4.4c-4.8,0-8.6-1.4-11.2-4.3
		c-2.6-2.9-3.9-7-3.9-12.3s1.3-9.4,3.9-12.2c2.6-2.8,6.3-4.3,11.2-4.3c4.8,0,8.5,1.4,11.1,4.3S290.7,60.3,290.7,65.6z M266.2,65.6
		c0,4,0.8,7,2.4,9c1.6,2,4,3.1,7.1,3.1c3.1,0,5.5-1,7.1-3c1.6-2,2.4-5,2.4-9c0-3.9-0.8-6.9-2.4-9c-1.6-2-3.9-3.1-7-3.1
		c-3.1,0-5.5,1-7.1,3.1C267,58.6,266.2,61.6,266.2,65.6z"/>
	<path class="st2" d="M327.3,81.7h-5.7l-5.4-19.2c-0.2-0.8-0.5-2-0.9-3.6s-0.6-2.7-0.6-3.3c-0.1,0.9-0.4,2.2-0.7,3.6
		c-0.3,1.5-0.6,2.6-0.8,3.3l-5.3,19.1H302l-4.2-16.1l-4.2-16h5.4l4.6,18.7c0.7,3,1.2,5.7,1.5,8c0.2-1.2,0.4-2.6,0.7-4.2
		s0.6-2.8,0.9-3.7l5.2-18.8h5.2l5.4,18.9c0.5,1.7,1.1,4.4,1.6,7.8c0.2-2.1,0.7-4.8,1.6-8l4.6-18.7h5.3L327.3,81.7z"/>
</g>
</svg>
