<?xml version="1.0" encoding="utf-8"?>
<!-- Generator: Adobe Illustrator 22.1.0, SVG Export Plug-In . SVG Version: 6.00 Build 0)  -->
<svg version="1.1" id="Layer_1" xmlns="http://www.w3.org/2000/svg" xmlns:xlink="http://www.w3.org/1999/xlink" x="0px" y="0px"
	 viewBox="0 0 49.2 49.2" style="enable-background:new 0 0 49.2 49.2;" xml:space="preserve">
<style type="text/css">
	.st0{fill:#FF750C;}
	.st1{display:none;}
	.st2{display:inline;}
	.st3{fill:#FFFFFF;}
</style>
<g id="Layer_1_1_">
	<g id="Q4CSLI_2_" transform="translate(-20.049 0.409)">
		<g id="Group_14">
			<g id="Path_95">
				<path class="st0" d="M42.8,47.7c-5.9-0.3-11.5-2.9-15.4-7.3c-4.5-4.6-6.9-10.8-6.6-17.3C21.3,10,32.3-0.2,45.4,0.3l0,0
					c6.1,0.1,12,2.7,16.2,7.2c4.6,4.6,7,11,6.7,17.5C67.8,37.1,57.7,47.7,42.8,47.7z M49.4,23.9c0.1-1.3,0.2-2.6,0.4-3.9h-3.5v-2.7
					c0-0.4,0.3-0.7,0.7-0.7c0.3-0.1,0.6-0.1,1-0.1h1.9v-4h-2.6c-0.8,0-1.7,0.1-2.5,0.2c-0.8,0.1-1.5,0.5-2,1c-0.6,0.7-1,1.7-1,2.7
					v3.5h-2.4v3.9h2.4v11.4h4.6V23.8C47.3,23.9,48.4,23.9,49.4,23.9L49.4,23.9z"/>
			</g>
		</g>
	</g>
</g>
<g id="Layer_2_1_" class="st1">
	<g id="Path_96" class="st2">
		<path class="st3" d="M41.7,7.8c-4.2-4.5-10-7.1-16.2-7.2C12.4,0.1,1.4,10.3,0.9,23.4l0,0c-0.3,6.4,2,12.7,6.6,17.3
			c4,4.4,9.5,7,15.4,7.3c14.9,0,25-10.6,25.4-22.7C48.6,18.8,46.2,12.4,41.7,7.8z M34.7,19.6c-0.4,0.3-0.6,0.9-0.6,1.4
			c-0.1,6.3-4.4,11.8-10.6,13.4c-3.2,0.8-6.6,0.4-9.5-1c-0.4-0.2-0.8-0.4-1.1-0.7c2.5,0.1,4.9-0.6,6.9-2.1c-2-0.2-3.7-1.4-4.4-3.3
			c0.7-0.1,1.2-0.1,1.8-0.1c-2-0.8-3.4-2.7-3.5-4.9c0.7,0.1,1.3,0.4,1.8,0.5c-1.9-1.6-2.4-4.3-1.2-6.5c2.5,3,6.1,4.8,10,5.1v-1
			c-0.1-2.7,2-4.9,4.7-5c1.2,0,2.3,0.3,3.2,1.1c0.4,0.4,0.9,0.4,1.4,0.2c0.7-0.3,1.3-0.5,2.1-0.8c-0.3,0.9-0.9,1.7-1.6,2.3
			c0,0.1,0,0.1,0.1,0.1c0.7-0.1,1.4-0.4,2.1-0.5l0.1,0.1C35.9,18.5,35.3,19.1,34.7,19.6z"/>
	</g>
</g>
<g id="Layer_3" class="st1">
	<g id="vLigSo.tif_1_" transform="translate(149.925)" class="st2">
		<g id="Group_16">
			<g id="Path_99">
				<path class="st3" d="M-126.7,0.6h3.1c0.1,0,0.2,0,0.4,0.1c0.8,0.1,1.6,0.1,2.4,0.3c5.6,1,10.7,4.1,14.2,8.6
					c4,5,5.7,11.5,4.8,17.8c-0.6,4.6-2.5,8.8-5.6,12.3c-3.6,4.2-8.7,7-14.2,7.8c-0.7,0.1-1.3,0.2-2,0.3h-3.1
					c-0.6-0.1-1.1-0.1-1.7-0.2c-4.6-0.6-8.9-2.6-12.3-5.7c-4.2-3.6-7-8.7-7.8-14.2c-0.1-0.7-0.2-1.3-0.3-2v-3.1
					c0.1-0.6,0.1-1.1,0.2-1.7c0.6-4.6,2.6-8.8,5.6-12.3c3.6-4.2,8.7-7,14.2-7.8C-128.1,0.8-127.3,0.7-126.7,0.6z M-111.7,24.3
					L-111.7,24.3v-8c0-0.4,0-0.8-0.1-1.2c-0.5-2.6-2.8-4.4-5.4-4.3c-5.3,0.1-10.6,0-16,0c-0.4,0-0.8,0-1.2,0.1
					c-2.6,0.5-4.4,2.7-4.3,5.3v16c0,0.7,0.1,1.3,0.3,1.9c0.7,2.2,2.9,3.6,5.2,3.5h11.2c1.8,0,3.6,0,5.5-0.1c2.5-0.2,4.6-2.2,4.7-4.7
					C-111.7,29.9-111.7,27.1-111.7,24.3L-111.7,24.3z"/>
			</g>
			<g id="Path_100">
				<path class="st3" d="M-135.9,21.5h3.9c-1.1,3.6-0.3,6.7,2.9,8.9c2.5,1.7,5.7,1.6,8.1-0.1c2.7-2,3.6-4.7,2.7-8.7h3.9
					c0,0.1,0.1,0.2,0.1,0.4v10.5c0.1,1.2-0.7,2.4-1.9,2.7c-0.3,0.1-0.6,0.1-0.9,0.1H-133c-1.4,0.1-2.7-0.9-2.8-2.3
					c0-0.1,0-0.2,0-0.4V21.8C-136,21.7-135.9,21.6-135.9,21.5z"/>
			</g>
			<g id="Path_101">
				<path class="st3" d="M-125.2,28.9c-2.6,0-4.7-2.2-4.7-4.8s2.2-4.7,4.8-4.7l0,0c2.6,0,4.7,2.2,4.7,4.8
					C-120.4,26.8-122.6,28.9-125.2,28.9z"/>
			</g>
			<g id="Path_102">
				<rect x="-119.3" y="13.9" class="st3" width="4.5" height="4.5"/>
			</g>
		</g>
	</g>
</g>
<g id="Layer_4" class="st1">
	<g id="k4itnn.tif_2_" transform="translate(92.627 0.261)" class="st2">
		<g id="Group_15_1_">
			<g id="Path_97_1_">
				<path class="st3" d="M-68.9,0.4h2.1c0.1,0,0.2,0,0.2,0.1c1,0.1,2.1,0.2,3.2,0.4c5.1,1,9.8,3.6,13.2,7.5
					c3.3,3.7,5.3,8.3,5.8,13.1c0.2,2.3,0.1,4.6-0.3,6.8C-46.8,39.1-56,47.1-67,47.6c-2.2,0.1-4.5-0.2-6.6-0.7
					c-4.5-1.1-8.5-3.5-11.7-6.9c-3.6-3.8-5.8-8.8-6.2-14c0-0.3-0.1-0.6-0.1-1v-2c0-0.1,0.1-0.1,0.1-0.3c0.1-1.5,0.3-2.9,0.7-4.4
					c1.1-4.5,3.5-8.5,6.9-11.7c3.8-3.6,8.8-5.8,14-6.2C-69.6,0.5-69.3,0.4-68.9,0.4z M-67.9,33.9h9.9c2.3,0,4.2-1.8,4.2-4.1v-0.1
					V18.3c0-0.2,0-0.4-0.1-0.6c-0.3-2.1-2.1-3.6-4.1-3.6h-19.9c-2.3,0-4.1,1.9-4.2,4.1v11.4c0,0.2,0,0.5,0.1,0.7
					c0.4,2,2.2,3.5,4.2,3.5h9.9C-67.9,33.8-67.9,33.9-67.9,33.9z"/>
			</g>
			<g id="Path_98_1_">
				<path class="st3" d="M-62.7,23.5c-2.7,1.8-5.3,3.5-8,5.2V18.2C-68,20-65.3,21.7-62.7,23.5z"/>
			</g>
		</g>
	</g>
</g>
</svg>
